<mxfile host="65bd71144e">
    <diagram id="8EoM5HPtn-LMJsy4IEIz" name="Page-1">
        <mxGraphModel dx="1483" dy="467" grid="1" gridSize="10" guides="1" tooltips="1" connect="1" arrows="1" fold="1" page="1" pageScale="1" pageWidth="1100" pageHeight="850" math="0" shadow="0">
            <root>
                <mxCell id="0"/>
                <mxCell id="1" parent="0"/>
                <mxCell id="2d84DBHczdJdreTanbx1-5" value="" style="whiteSpace=wrap;html=1;aspect=fixed;fillColor=#FFFFFF;" vertex="1" parent="1">
                    <mxGeometry x="-95" y="100" width="430" height="430" as="geometry"/>
                </mxCell>
                <mxCell id="2d84DBHczdJdreTanbx1-1" value="" style="whiteSpace=wrap;html=1;aspect=fixed;" vertex="1" parent="1">
                    <mxGeometry x="20" y="170" width="200" height="200" as="geometry"/>
                </mxCell>
                <mxCell id="2d84DBHczdJdreTanbx1-2" value="" style="rounded=0;whiteSpace=wrap;html=1;" vertex="1" parent="1">
                    <mxGeometry x="35" y="220" width="170" height="30" as="geometry"/>
                </mxCell>
                <mxCell id="2d84DBHczdJdreTanbx1-3" value="" style="rounded=0;whiteSpace=wrap;html=1;" vertex="1" parent="1">
                    <mxGeometry x="35" y="280" width="170" height="30" as="geometry"/>
                </mxCell>
                <mxCell id="2d84DBHczdJdreTanbx1-4" value="" style="rounded=1;whiteSpace=wrap;html=1;fillColor=#00CC00;" vertex="1" parent="1">
                    <mxGeometry x="35" y="330" width="170" height="30" as="geometry"/>
                </mxCell>
                <mxCell id="2d84DBHczdJdreTanbx1-7" value="Text" style="text;html=1;strokeColor=none;fillColor=none;align=center;verticalAlign=middle;whiteSpace=wrap;rounded=0;" vertex="1" parent="1">
                    <mxGeometry x="90" y="190" width="60" height="30" as="geometry"/>
                </mxCell>
            </root>
        </mxGraphModel>
    </diagram>
</mxfile>